<?xml version="1.0" standalone="no"?>
<!DOCTYPE svg PUBLIC "-//W3C//DTD SVG 20010904//EN"
 "http://www.w3.org/TR/2001/REC-SVG-20010904/DTD/svg10.dtd">
<svg version="1.0" xmlns="http://www.w3.org/2000/svg"
 width="700.000000pt" height="700.000000pt" viewBox="0 0 700.000000 700.000000"
 preserveAspectRatio="xMidYMid meet">
<metadata>
Created by potrace 1.11, written by Peter Selinger 2001-2013
</metadata>
<g transform="translate(0.000000,700.000000) scale(0.100000,-0.100000)"
fill="#000000" stroke="none">
<path d="M3869 6444 c-28 -8 -62 -29 -83 -52 -31 -31 -330 -460 -636 -912 -41
-61 -101 -148 -132 -193 -116 -166 -208 -300 -298 -432 -36 -52 -121 -177
-190 -278 -69 -100 -161 -234 -205 -297 -43 -63 -97 -142 -120 -175 -23 -33
-72 -105 -110 -160 -37 -55 -73 -106 -80 -114 -11 -11 -148 73 -786 480 -426
271 -794 499 -820 507 -99 32 -211 -18 -262 -118 -25 -48 -28 -62 -23 -117 10
-119 10 -118 491 -423 116 -73 233 -147 260 -165 28 -18 214 -137 415 -265
201 -128 432 -275 513 -328 206 -132 259 -147 363 -102 59 26 62 29 380 495
41 61 126 184 189 275 63 91 148 215 189 275 41 61 168 246 283 412 114 167
334 486 487 709 l280 407 918 -924 c506 -508 985 -990 1066 -1072 l147 -147
-110 1 c-155 1 -206 -16 -260 -88 -69 -90 -64 -207 14 -296 62 -70 75 -71 536
-71 400 0 411 1 459 22 50 23 85 55 114 107 15 27 17 77 20 445 3 476 3 480
-67 550 -87 86 -205 92 -305 16 -56 -43 -80 -105 -82 -216 -2 -52 -3 -105 -3
-116 -1 -25 101 -125 -1343 1327 -608 612 -1005 1005 -1030 1018 -53 28 -121
34 -179 15z"/>
<path d="M3198 3999 c-84 -7 -137 -39 -167 -101 l-21 -44 1 -1580 c0 -1183 3
-1587 12 -1610 17 -43 47 -78 87 -100 32 -17 63 -19 382 -20 307 -1 351 1 385
16 55 24 100 80 108 132 3 24 5 750 3 1614 l-3 1570 -27 41 c-16 25 -44 49
-71 62 -43 21 -61 22 -334 24 -158 1 -318 -1 -355 -4z"/>
<path d="M113 3055 c-43 -19 -91 -71 -104 -114 -7 -24 -9 -400 -7 -1157 l3
-1120 25 -38 c15 -22 45 -46 75 -60 l50 -24 345 1 c315 2 348 4 380 21 40 22
70 57 87 100 8 23 12 318 12 1144 1 936 -1 1118 -13 1146 -19 46 -71 94 -115
106 -59 16 -699 12 -738 -5z"/>
<path d="M4620 3048 c-26 -13 -57 -41 -75 -66 l-30 -44 0 -1126 c0 -1122 0
-1127 21 -1167 11 -22 40 -53 63 -70 l43 -30 346 -1 c191 -1 361 3 378 8 48
13 103 69 118 119 9 34 12 293 12 1154 l-1 1110 -24 38 c-12 20 -39 50 -59 65
l-35 27 -356 3 c-354 3 -356 3 -401 -20z"/>
<path d="M1615 2353 c-41 -21 -74 -52 -93 -88 -14 -27 -16 -113 -16 -805 -1
-766 -1 -775 20 -815 11 -22 40 -53 63 -70 l43 -30 341 -2 c190 -1 359 3 379
8 48 12 91 49 114 96 17 36 18 83 19 793 1 804 1 816 -47 868 -13 13 -42 33
-65 44 -39 17 -69 18 -385 18 -289 -1 -348 -4 -373 -17z"/>
<path d="M6144 2359 c-38 -11 -91 -61 -109 -102 -19 -43 -22 -1527 -4 -1587 7
-21 26 -52 43 -69 59 -57 69 -59 446 -57 341 1 345 1 385 24 22 13 52 39 65
59 l25 37 3 765 c2 560 0 777 -9 808 -14 53 -68 109 -117 122 -46 13 -684 13
-728 0z"/>
</g>
</svg>
